<svg xmlns="http://www.w3.org/2000/svg" viewBox="0 0 800 190" width="800" height="190" font-family="Helvetica, Arial, sans-serif"><defs><marker id="a0" viewBox="0 0 10 10" refX="8" refY="5" markerWidth="7" markerHeight="7" orient="auto"><path d="M0,0 L10,5 L0,10 z" fill="#e6e6e6"/></marker><marker id="a1" viewBox="0 0 10 10" refX="8" refY="5" markerWidth="7" markerHeight="7" orient="auto"><path d="M0,0 L10,5 L0,10 z" fill="#ff6b6b"/></marker></defs><rect x="2" y="20" width="140" height="150" rx="12" fill="none" stroke="#e6e6e6" stroke-width="2.5"/><text x="72.0" y="65" fill="#e6e6e6" font-size="32" text-anchor="middle" >📸</text><text x="72.0" y="102" fill="#e6e6e6" font-size="17" text-anchor="middle" font-weight="bold" >Photo</text><text x="72.0" y="126" fill="#bbb" font-size="14" text-anchor="middle" >of the wine list</text><line x1="144" y1="95.0" x2="164" y2="95.0" stroke="#e6e6e6" stroke-width="2.5" marker-end="url(#a0)"/><rect x="166" y="20" width="140" height="150" rx="12" fill="none" stroke="#ff6b6b" stroke-width="2.5"/><text x="236.0" y="65" fill="#e6e6e6" font-size="32" text-anchor="middle" >👁️</text><text x="236.0" y="102" fill="#e6e6e6" font-size="17" text-anchor="middle" font-weight="bold" >Vision model</text><text x="236.0" y="126" fill="#bbb" font-size="14" text-anchor="middle" >Ollama Cloud</text><text x="236.0" y="145" fill="#bbb" font-size="14" text-anchor="middle" >reads the list</text><line x1="308" y1="95.0" x2="328" y2="95.0" stroke="#e6e6e6" stroke-width="2.5" marker-end="url(#a0)"/><rect x="330" y="20" width="140" height="150" rx="12" fill="none" stroke="#e6e6e6" stroke-width="2.5"/><text x="400.0" y="65" fill="#e6e6e6" font-size="32" text-anchor="middle" >📋</text><text x="400.0" y="102" fill="#e6e6e6" font-size="17" text-anchor="middle" font-weight="bold" >JSON</text><text x="400.0" y="126" fill="#bbb" font-size="14" text-anchor="middle" >winery, cuvée,</text><text x="400.0" y="145" fill="#bbb" font-size="14" text-anchor="middle" >colour</text><line x1="472" y1="95.0" x2="492" y2="95.0" stroke="#e6e6e6" stroke-width="2.5" marker-end="url(#a0)"/><rect x="494" y="20" width="140" height="150" rx="12" fill="none" stroke="#e6e6e6" stroke-width="2.5"/><text x="564.0" y="65" fill="#e6e6e6" font-size="32" text-anchor="middle" >🗂️</text><text x="564.0" y="102" fill="#e6e6e6" font-size="17" text-anchor="middle" font-weight="bold" >Match</text><text x="564.0" y="126" fill="#bbb" font-size="14" text-anchor="middle" >by name in</text><text x="564.0" y="145" fill="#bbb" font-size="14" text-anchor="middle" >our catalog</text><line x1="636" y1="95.0" x2="656" y2="95.0" stroke="#e6e6e6" stroke-width="2.5" marker-end="url(#a0)"/><rect x="658" y="20" width="140" height="150" rx="12" fill="none" stroke="#e6e6e6" stroke-width="2.5"/><text x="728.0" y="65" fill="#e6e6e6" font-size="32" text-anchor="middle" >🎯</text><text x="728.0" y="102" fill="#e6e6e6" font-size="17" text-anchor="middle" font-weight="bold" >Rank</text><text x="728.0" y="126" fill="#bbb" font-size="14" text-anchor="middle" >closest to your</text><text x="728.0" y="145" fill="#bbb" font-size="14" text-anchor="middle" >taste with &lt;=&gt;</text></svg>